<svg width="42" height="42" viewBox="0 0 42 42" fill="none" xmlns="http://www.w3.org/2000/svg">
<rect width="42" height="42" rx="21" fill="#151830"/>
<g clip-path="url(#clip0_2349_1073)">
<path d="M8.00006 20.4422C7.98264 14.7736 11.7815 9.69869 17.2393 8.09698C18.1689 7.825 18.9265 8.35602 18.8198 9.21515C18.7523 9.75049 18.3996 10.0203 17.9033 10.165C16.2879 10.6355 14.862 11.4472 13.6385 12.5869C11.4789 14.5966 10.3077 17.0769 10.1858 20.0105C9.98114 24.9084 13.1117 29.2559 17.8619 30.7065C18.3343 30.8511 18.7044 31.0799 18.8111 31.5872C18.9874 32.4247 18.2342 33.0723 17.3634 32.8133C13.989 31.8052 11.418 29.7826 9.66329 26.754C8.53343 24.8026 8.00006 22.6893 8.00006 20.4422Z" fill="white"/>
<path d="M34.002 20.1975C34.0129 26.138 30.1683 31.2432 24.6844 32.7996C23.8049 33.05 23.0821 32.5146 23.1779 31.6728C23.2367 31.159 23.5632 30.887 24.0509 30.7359C26.8766 29.8681 29.0493 28.1715 30.4839 25.6048C33.8082 19.6535 30.7147 12.148 24.1423 10.1771C23.6677 10.0347 23.2955 9.80369 23.191 9.30072C23.1082 8.9057 23.2149 8.54952 23.5306 8.27538C23.8549 7.99044 24.2272 7.93647 24.6343 8.06815C29.4956 9.63099 32.5369 12.8668 33.7277 17.7971C33.806 18.1252 33.8583 18.4619 33.8931 18.7987C33.9497 19.3427 33.9802 19.8888 34.0042 20.1996L34.002 20.1975Z" fill="white"/>
<path d="M19.5705 24.747C18.9261 24.76 18.3753 24.5398 17.9247 24.1038C17.2476 23.4497 16.5749 22.7892 15.9153 22.1157C15.4581 21.6472 15.4734 20.9522 15.9153 20.542C16.3485 20.1362 17.0125 20.1578 17.4741 20.6068C18.0379 21.1529 18.5909 21.7098 19.1482 22.2624C19.421 22.5316 19.6895 22.5359 19.9537 22.2754C21.8673 20.378 23.7743 18.4741 25.7053 16.5939C25.9404 16.3651 26.2909 16.1945 26.6153 16.1319C27.0485 16.0478 27.4012 16.2895 27.6102 16.6824C27.8192 17.0753 27.7778 17.4617 27.5188 17.8221C27.4513 17.9171 27.3642 17.9992 27.2815 18.0833C25.2939 20.0542 23.3041 22.025 21.3186 23.998C20.831 24.4815 20.265 24.7621 19.5727 24.7492L19.5705 24.747Z" fill="white"/>
</g>
<defs>
<clipPath id="clip0_2349_1073">
<rect width="26" height="24.8696" fill="white" transform="translate(8 8)"/>
</clipPath>
</defs>
</svg>
