<svg width="22" height="22" viewBox="0 0 22 22" fill="none" xmlns="http://www.w3.org/2000/svg">
<g clip-path="url(#clip0_2349_1236)">
<path d="M0 7.07591C0.1825 6.7514 0.393077 6.46724 0.808965 6.42689C1.34418 6.37602 1.77411 6.71632 1.82675 7.25132C1.83904 7.36709 1.83904 7.48286 1.83904 7.59863C1.83904 10.5069 1.83904 13.4153 1.83904 16.3218C1.83904 18.2829 3.10776 19.7914 5.03805 20.1124C5.24687 20.1475 5.46447 20.1493 5.67855 20.1493C8.64944 20.151 11.6221 20.151 14.593 20.1493C14.9843 20.1493 15.2896 20.2949 15.4739 20.6439C15.6423 20.9632 15.6195 21.2842 15.423 21.5824C15.2107 21.9051 14.8843 21.9981 14.5175 21.9963C13.2944 21.9946 12.0731 21.9963 10.85 21.9963C9.11797 21.9963 7.38773 22.0016 5.65574 21.9963C4.17819 21.9911 2.87437 21.5175 1.78464 20.5036C0.808965 19.5967 0.228125 18.4794 0.0508894 17.155C0.0421153 17.0954 0.0175481 17.0375 0 16.9778C0 13.6766 0 10.3754 0 7.07416L0 7.07591Z" fill="#151830"/>
<path d="M3.65346 9.18949C3.65346 7.32488 3.6482 5.46202 3.65697 3.5974C3.65697 3.26939 3.55519 3.01504 3.32005 2.79051C2.91995 2.40812 2.5339 2.01345 2.14433 1.61877C1.74248 1.21182 1.72844 0.659276 2.10221 0.282143C2.47599 -0.0949897 3.03577 -0.082711 3.43762 0.315471C3.88159 0.753998 4.32906 1.19077 4.7625 1.63807C5.27139 2.16254 5.49952 2.80455 5.49952 3.53075C5.49952 7.16876 5.52058 10.8085 5.48723 14.4466C5.47671 15.6797 6.36464 16.5111 7.53685 16.5006C10.8201 16.4725 14.1033 16.4901 17.3866 16.4918C17.82 16.4918 18.1306 16.7111 18.2692 17.097C18.3973 17.4531 18.3149 17.8706 18.0025 18.0846C17.8095 18.2161 17.548 18.3073 17.3146 18.3091C15.5475 18.3266 13.7822 18.3196 12.0151 18.3196C10.3831 18.3196 8.74942 18.3424 7.11745 18.3056C5.35387 18.267 3.82894 16.8093 3.69382 15.0447C3.63065 14.2115 3.65522 13.3695 3.65171 12.5328C3.64644 11.4172 3.65171 10.3034 3.65171 9.18774L3.65346 9.18949Z" fill="#151830"/>
<path d="M13.0045 0.00986274C14.8418 0.00986274 16.6809 -0.0164489 18.5181 0.0168792C20.4555 0.0519613 21.9909 1.63943 21.9962 3.57596C22.0049 7.24204 21.9997 10.9081 21.9962 14.5742C21.9962 15.1636 21.6136 15.5776 21.0819 15.5828C20.5397 15.5881 20.1519 15.1653 20.1519 14.5619C20.1519 10.9502 20.1519 7.33676 20.1519 3.72506C20.1519 2.57612 19.4131 1.83413 18.2637 1.83413C14.6418 1.83413 11.0181 1.83413 7.39619 1.83413C6.81008 1.83413 6.42754 1.47454 6.42578 0.930768C6.42578 0.416815 6.78376 0.0274038 7.30494 0.0133709C7.88402 -0.00241601 8.46487 0.00810863 9.04395 0.00635452C10.3653 0.00635452 11.6849 0.00635452 13.0063 0.00635452C13.0063 0.00635452 13.0063 0.00986274 13.0063 0.0116168L13.0045 0.00986274Z" fill="#151830"/>
<path d="M13.75 8.24952C13.8886 8.24952 13.9921 8.24952 14.0974 8.24952C14.8818 8.24952 15.668 8.24602 16.4524 8.24952C17.0227 8.25303 17.4158 8.63718 17.4088 9.17569C17.4035 9.70017 17.0104 10.0738 16.4559 10.0755C15.6627 10.0791 14.8678 10.0755 14.0746 10.0755C13.9781 10.0755 13.8816 10.0755 13.75 10.0755C13.75 10.1983 13.75 10.2931 13.75 10.3878C13.75 11.1719 13.75 11.9577 13.75 12.7418C13.75 13.3259 13.3657 13.7451 12.8357 13.7504C12.3058 13.7557 11.9109 13.3399 11.9057 12.7541C11.8987 11.97 11.9057 11.1841 11.9039 10.4001C11.9039 10.3036 11.9039 10.2071 11.9039 10.0755C11.7828 10.0755 11.6881 10.0755 11.5933 10.0755C10.8002 10.0755 10.0052 10.0773 9.21205 10.0755C8.63999 10.0738 8.25042 9.69666 8.25393 9.15464C8.25568 8.62841 8.64525 8.25128 9.20152 8.24952C9.9947 8.24426 10.7896 8.24952 11.5828 8.24952C11.6793 8.24952 11.7741 8.24952 11.9039 8.24952C11.9039 8.12498 11.9039 8.03026 11.9039 7.93554C11.9039 7.14268 11.9004 6.34807 11.9057 5.55522C11.9092 5.16054 12.0671 4.8413 12.4427 4.6729C12.7883 4.51679 13.1235 4.55713 13.4201 4.79744C13.6587 4.99039 13.7517 5.25176 13.7517 5.55346C13.7517 6.34632 13.7517 7.14093 13.7517 7.93378C13.7517 8.02851 13.7517 8.12498 13.7517 8.24952H13.75Z" fill="#151830"/>
</g>
<defs>
<clipPath id="clip0_2349_1236">
<rect width="22" height="22" fill="white"/>
</clipPath>
</defs>
</svg>
