<svg width="22" height="22" viewBox="0 0 22 22" fill="none" xmlns="http://www.w3.org/2000/svg">
<g clip-path="url(#clip0_2349_1065)">
<path d="M1.05358 0C1.53923 0.140115 1.81195 0.549253 2.1519 0.872452C2.38539 1.09477 2.60953 1.32829 2.82808 1.56556C3.04288 1.79908 3.29692 1.88876 3.61259 1.88876C7.12796 1.88315 10.6415 1.88502 14.1568 1.88502C15.5297 1.88502 16.4637 2.81726 16.4637 4.19039C16.4637 4.62568 16.4637 5.06097 16.4637 5.54484C16.7868 5.54484 17.0857 5.54484 17.3845 5.54484C18.4044 5.55044 19.3327 5.85122 20.1397 6.47334C21.2791 7.34952 21.9347 8.50781 21.9702 9.9538C22.0057 11.454 22.015 12.956 21.9683 14.4543C21.9291 15.6556 20.9541 16.5168 19.7456 16.5168C16.4487 16.5187 13.1538 16.5168 9.85695 16.5168C7.35958 16.5168 4.86034 16.5168 2.36297 16.5168C0.982602 16.5168 0.0430541 15.5715 0.0430541 14.1853C0.0430541 11.6296 0.0430541 9.07388 0.0430541 6.51817C0.0430541 6.03991 0.336313 5.66814 0.762191 5.58594C1.21982 5.49813 1.65131 5.71298 1.80074 6.13332C1.85864 6.29772 1.86985 6.48641 1.86985 6.66389C1.87359 9.13366 1.87172 11.6034 1.87359 14.0751C1.87359 14.5888 1.97258 14.686 2.49186 14.686C8.17211 14.686 13.8524 14.686 19.5326 14.686C20.0743 14.686 20.1509 14.6056 20.1509 14.0545C20.1509 12.7617 20.1509 11.4708 20.1509 10.178C20.1509 8.66474 18.9722 7.43546 17.4593 7.37568C17.222 7.36634 16.9829 7.38689 16.7476 7.37007C16.5216 7.35326 16.4581 7.43546 16.4581 7.65965C16.4674 9.06641 16.4655 10.4713 16.4618 11.8781C16.4618 12.4796 16.049 12.8663 15.47 12.829C14.9918 12.7972 14.6462 12.4124 14.635 11.8799C14.6275 11.5007 14.635 11.1196 14.635 10.7403C14.635 8.60309 14.635 6.46586 14.635 4.32677C14.635 3.8074 14.5397 3.70839 14.0261 3.70839C10.5313 3.70839 7.03456 3.70465 3.53974 3.71026C2.73095 3.71026 2.06598 3.42255 1.51308 2.83781C1.1283 2.43054 0.726702 2.04008 0.332577 1.64029C-0.231526 1.07422 -0.0578119 0.321332 0.700551 0.0485734C0.726702 0.0392323 0.745381 0.0168139 0.767795 0C0.863057 0 0.95832 0 1.05358 0Z" fill="#151830"/>
<path d="M3.6775 21.9999C1.67885 21.9999 0.0145652 20.354 0.0313763 18.3924C0.035112 17.8488 0.403086 17.4527 0.916756 17.4396C1.45284 17.4265 1.82829 17.7946 1.8563 18.3625C1.90674 19.3863 2.71553 20.184 3.68684 20.1728C4.66001 20.1616 5.44078 19.3807 5.49495 18.3663C5.52484 17.7908 5.89094 17.4265 6.4289 17.4378C6.95377 17.449 7.31801 17.8469 7.31988 18.4148C7.32548 20.3634 5.66306 21.998 3.6775 21.998V21.9999Z" fill="#151830"/>
<path d="M18.2426 21.9992C16.2403 21.9992 14.6021 20.3664 14.6133 18.3842C14.6171 17.835 14.9776 17.4482 15.4969 17.4389C16.0273 17.4296 16.414 17.8144 16.4383 18.3693C16.47 19.1595 16.8511 19.72 17.5739 20.0264C18.6648 20.4897 19.9219 19.7331 20.0452 18.5561C20.0545 18.472 20.0601 18.3861 20.0694 18.302C20.1217 17.7565 20.5084 17.4127 21.037 17.4389C21.5432 17.465 21.9074 17.8798 21.9 18.4197C21.872 20.3888 20.2282 21.9973 18.2445 21.9973L18.2426 21.9992Z" fill="#151830"/>
<path d="M12.8152 9.0815C12.7927 9.86241 12.5667 10.3706 12.1483 10.7928C11.5805 11.3663 11.0108 11.938 10.4355 12.5059C10.0058 12.93 9.45295 12.9487 9.07003 12.5657C8.68898 12.1846 8.71327 11.6297 9.13728 11.2C9.67149 10.6601 10.2113 10.1258 10.7474 9.58779C11.0649 9.27019 11.0631 9.13195 10.7381 8.80875C10.2076 8.27817 9.67523 7.7476 9.14662 7.21703C8.71327 6.78174 8.68525 6.21194 9.07377 5.82896C9.45295 5.45531 10.0171 5.48521 10.4429 5.90742C11.0033 6.46228 11.5581 7.02087 12.1147 7.57946C12.5817 8.04652 12.8208 8.60511 12.8114 9.08524L12.8152 9.0815Z" fill="#151830"/>
<path d="M7.67987 9.2408C7.6724 9.84984 7.44078 10.3673 7.01677 10.797C6.44893 11.3706 5.87923 11.9422 5.30392 12.5102C4.87617 12.9324 4.31954 12.9492 3.93849 12.5625C3.55931 12.1795 3.58546 11.6284 4.01134 11.1987C4.55303 10.6532 5.09845 10.1114 5.642 9.56587C5.92406 9.28191 5.92592 9.12311 5.64761 8.84474C5.10405 8.29923 4.55863 7.75745 4.01694 7.21193C3.59106 6.78411 3.55744 6.23112 3.93102 5.84441C4.30833 5.45395 4.88364 5.4745 5.32073 5.90792C5.88109 6.46278 6.43773 7.02138 6.99249 7.57997C7.45012 8.03955 7.69108 8.5888 7.67987 9.2408Z" fill="#151830"/>
</g>
<defs>
<clipPath id="clip0_2349_1065">
<rect width="22" height="22" fill="white"/>
</clipPath>
</defs>
</svg>
